<mxfile host="app.diagrams.net" agent="Mozilla/5.0 (Windows NT 10.0; Win64; x64) AppleWebKit/537.36 (KHTML, like Gecko) Chrome/135.0.0.0 Safari/537.36" version="26.2.14" pages="2">
  <diagram name="Page-1" id="CwYuQARalTDv6eNAu96V">
    <mxGraphModel dx="2037" dy="1061" grid="1" gridSize="10" guides="1" tooltips="1" connect="1" arrows="1" fold="1" page="1" pageScale="1" pageWidth="850" pageHeight="1100" math="0" shadow="0">
      <root>
        <mxCell id="0" />
        <mxCell id="1" parent="0" />
        <mxCell id="bZ98sKLpUIklZAlVgXFt-26" value="" style="rounded=0;whiteSpace=wrap;html=1;fillColor=#eeeeee;strokeColor=#36393d;" vertex="1" parent="1">
          <mxGeometry x="535" y="610" width="195" height="160" as="geometry" />
        </mxCell>
        <mxCell id="bZ98sKLpUIklZAlVgXFt-22" value="" style="rounded=0;whiteSpace=wrap;html=1;fillColor=#eeeeee;strokeColor=#36393d;" vertex="1" parent="1">
          <mxGeometry x="90" y="170" width="640" height="350" as="geometry" />
        </mxCell>
        <mxCell id="bZ98sKLpUIklZAlVgXFt-1" value="Host with MCP Client (Claude, IDEs, Tools)" style="rounded=0;whiteSpace=wrap;html=1;" vertex="1" parent="1">
          <mxGeometry x="110" y="320" width="130" height="50" as="geometry" />
        </mxCell>
        <mxCell id="bZ98sKLpUIklZAlVgXFt-2" value="MCP Server A" style="rounded=0;whiteSpace=wrap;html=1;" vertex="1" parent="1">
          <mxGeometry x="350" y="200" width="120" height="50" as="geometry" />
        </mxCell>
        <mxCell id="bZ98sKLpUIklZAlVgXFt-3" value="MCP Server B" style="rounded=0;whiteSpace=wrap;html=1;" vertex="1" parent="1">
          <mxGeometry x="350" y="320" width="120" height="50" as="geometry" />
        </mxCell>
        <mxCell id="bZ98sKLpUIklZAlVgXFt-4" value="MCP Server C" style="rounded=0;whiteSpace=wrap;html=1;" vertex="1" parent="1">
          <mxGeometry x="350" y="440" width="120" height="50" as="geometry" />
        </mxCell>
        <mxCell id="bZ98sKLpUIklZAlVgXFt-5" value="" style="endArrow=classic;startArrow=classic;html=1;rounded=0;exitX=1;exitY=0;exitDx=0;exitDy=0;entryX=0;entryY=0.5;entryDx=0;entryDy=0;" edge="1" parent="1" source="bZ98sKLpUIklZAlVgXFt-1" target="bZ98sKLpUIklZAlVgXFt-2">
          <mxGeometry width="50" height="50" relative="1" as="geometry">
            <mxPoint x="300" y="280" as="sourcePoint" />
            <mxPoint x="290" y="260.8571428571429" as="targetPoint" />
            <Array as="points" />
          </mxGeometry>
        </mxCell>
        <mxCell id="bZ98sKLpUIklZAlVgXFt-10" value="MCP Protocol" style="edgeLabel;html=1;align=center;verticalAlign=middle;resizable=0;points=[];" vertex="1" connectable="0" parent="bZ98sKLpUIklZAlVgXFt-5">
          <mxGeometry x="-0.0405" y="-3" relative="1" as="geometry">
            <mxPoint as="offset" />
          </mxGeometry>
        </mxCell>
        <mxCell id="bZ98sKLpUIklZAlVgXFt-8" value="" style="endArrow=classic;startArrow=classic;html=1;rounded=0;exitX=1;exitY=0.5;exitDx=0;exitDy=0;entryX=0;entryY=0.5;entryDx=0;entryDy=0;" edge="1" parent="1" source="bZ98sKLpUIklZAlVgXFt-1" target="bZ98sKLpUIklZAlVgXFt-3">
          <mxGeometry width="50" height="50" relative="1" as="geometry">
            <mxPoint x="250" y="355" as="sourcePoint" />
            <mxPoint x="360" y="235" as="targetPoint" />
            <Array as="points" />
          </mxGeometry>
        </mxCell>
        <mxCell id="bZ98sKLpUIklZAlVgXFt-11" value="MCP Protocol" style="edgeLabel;html=1;align=center;verticalAlign=middle;resizable=0;points=[];" vertex="1" connectable="0" parent="bZ98sKLpUIklZAlVgXFt-8">
          <mxGeometry x="0.0182" y="-2" relative="1" as="geometry">
            <mxPoint y="-2" as="offset" />
          </mxGeometry>
        </mxCell>
        <mxCell id="bZ98sKLpUIklZAlVgXFt-9" value="" style="endArrow=classic;startArrow=classic;html=1;rounded=0;exitX=1;exitY=0.5;exitDx=0;exitDy=0;entryX=0;entryY=0.5;entryDx=0;entryDy=0;" edge="1" parent="1" target="bZ98sKLpUIklZAlVgXFt-4">
          <mxGeometry width="50" height="50" relative="1" as="geometry">
            <mxPoint x="240" y="370" as="sourcePoint" />
            <mxPoint x="350" y="370" as="targetPoint" />
            <Array as="points" />
          </mxGeometry>
        </mxCell>
        <mxCell id="bZ98sKLpUIklZAlVgXFt-12" value="MCP Protocol" style="edgeLabel;html=1;align=center;verticalAlign=middle;resizable=0;points=[];" vertex="1" connectable="0" parent="bZ98sKLpUIklZAlVgXFt-9">
          <mxGeometry x="-0.0462" y="-2" relative="1" as="geometry">
            <mxPoint as="offset" />
          </mxGeometry>
        </mxCell>
        <mxCell id="bZ98sKLpUIklZAlVgXFt-13" value="&lt;br&gt;Local Data Source A" style="strokeWidth=2;html=1;shape=mxgraph.flowchart.database;whiteSpace=wrap;" vertex="1" parent="1">
          <mxGeometry x="610" y="190" width="80" height="70" as="geometry" />
        </mxCell>
        <mxCell id="bZ98sKLpUIklZAlVgXFt-17" value="&lt;br&gt;Local Data Source B" style="strokeWidth=2;html=1;shape=mxgraph.flowchart.database;whiteSpace=wrap;" vertex="1" parent="1">
          <mxGeometry x="610" y="310" width="80" height="70" as="geometry" />
        </mxCell>
        <mxCell id="bZ98sKLpUIklZAlVgXFt-18" value="&lt;br&gt;Remote Service C" style="strokeWidth=2;html=1;shape=mxgraph.flowchart.database;whiteSpace=wrap;" vertex="1" parent="1">
          <mxGeometry x="592.5" y="655" width="80" height="70" as="geometry" />
        </mxCell>
        <mxCell id="bZ98sKLpUIklZAlVgXFt-19" value="" style="endArrow=classic;startArrow=classic;html=1;rounded=0;exitX=1;exitY=0.5;exitDx=0;exitDy=0;entryX=0;entryY=0.5;entryDx=0;entryDy=0;entryPerimeter=0;" edge="1" parent="1" source="bZ98sKLpUIklZAlVgXFt-2" target="bZ98sKLpUIklZAlVgXFt-13">
          <mxGeometry width="50" height="50" relative="1" as="geometry">
            <mxPoint x="560" y="270" as="sourcePoint" />
            <mxPoint x="610" y="220" as="targetPoint" />
            <Array as="points">
              <mxPoint x="540" y="225" />
            </Array>
          </mxGeometry>
        </mxCell>
        <mxCell id="bZ98sKLpUIklZAlVgXFt-20" value="" style="endArrow=classic;startArrow=classic;html=1;rounded=0;exitX=1;exitY=0.5;exitDx=0;exitDy=0;entryX=0;entryY=0.5;entryDx=0;entryDy=0;entryPerimeter=0;" edge="1" parent="1">
          <mxGeometry width="50" height="50" relative="1" as="geometry">
            <mxPoint x="470" y="344.65999999999997" as="sourcePoint" />
            <mxPoint x="610" y="344.65999999999997" as="targetPoint" />
            <Array as="points">
              <mxPoint x="540" y="344.65999999999997" />
            </Array>
          </mxGeometry>
        </mxCell>
        <mxCell id="bZ98sKLpUIklZAlVgXFt-21" value="" style="endArrow=classic;startArrow=classic;html=1;rounded=0;exitX=1;exitY=0.5;exitDx=0;exitDy=0;entryX=0;entryY=0.5;entryDx=0;entryDy=0;entryPerimeter=0;" edge="1" parent="1" target="bZ98sKLpUIklZAlVgXFt-18">
          <mxGeometry width="50" height="50" relative="1" as="geometry">
            <mxPoint x="470" y="464.65999999999997" as="sourcePoint" />
            <mxPoint x="610" y="464.65999999999997" as="targetPoint" />
            <Array as="points" />
          </mxGeometry>
        </mxCell>
        <mxCell id="bZ98sKLpUIklZAlVgXFt-23" value="Web APIs" style="edgeLabel;html=1;align=center;verticalAlign=middle;resizable=0;points=[];" vertex="1" connectable="0" parent="bZ98sKLpUIklZAlVgXFt-21">
          <mxGeometry x="-0.1985" y="2" relative="1" as="geometry">
            <mxPoint x="-11" y="-14" as="offset" />
          </mxGeometry>
        </mxCell>
        <mxCell id="bZ98sKLpUIklZAlVgXFt-24" value="&lt;b&gt;Local Computer&lt;/b&gt;" style="text;strokeColor=none;align=center;fillColor=none;html=1;verticalAlign=middle;whiteSpace=wrap;rounded=0;" vertex="1" parent="1">
          <mxGeometry x="355" y="140" width="140" height="30" as="geometry" />
        </mxCell>
        <mxCell id="bZ98sKLpUIklZAlVgXFt-27" value="&lt;b&gt;Internet&lt;/b&gt;" style="text;strokeColor=none;align=center;fillColor=none;html=1;verticalAlign=middle;whiteSpace=wrap;rounded=0;" vertex="1" parent="1">
          <mxGeometry x="562.5" y="580" width="140" height="30" as="geometry" />
        </mxCell>
      </root>
    </mxGraphModel>
  </diagram>
  <diagram id="HHPAUSFJA00_tIVBCLux" name="Page-2">
    <mxGraphModel dx="1188" dy="619" grid="1" gridSize="10" guides="1" tooltips="1" connect="1" arrows="1" fold="1" page="1" pageScale="1" pageWidth="850" pageHeight="1100" math="0" shadow="0">
      <root>
        <mxCell id="0" />
        <mxCell id="1" parent="0" />
        <mxCell id="7-DRv9SmUTHGnU6In5bt-1" value="" style="rounded=0;whiteSpace=wrap;html=1;fillColor=#eeeeee;strokeColor=#36393d;" vertex="1" parent="1">
          <mxGeometry x="90" y="170" width="180" height="240" as="geometry" />
        </mxCell>
        <mxCell id="7-DRv9SmUTHGnU6In5bt-2" value="&lt;b&gt;Agent A&lt;/b&gt;&lt;div&gt;&lt;b&gt;(MCP Host)&lt;/b&gt;&lt;/div&gt;" style="text;strokeColor=none;align=center;fillColor=none;html=1;verticalAlign=middle;whiteSpace=wrap;rounded=0;" vertex="1" parent="1">
          <mxGeometry x="120" y="180" width="120" height="30" as="geometry" />
        </mxCell>
        <mxCell id="7-DRv9SmUTHGnU6In5bt-3" value="MCP Client" style="rounded=1;whiteSpace=wrap;html=1;fillColor=#dae8fc;strokeColor=#6c8ebf;" vertex="1" parent="1">
          <mxGeometry x="230" y="240" width="100" height="40" as="geometry" />
        </mxCell>
        <mxCell id="7-DRv9SmUTHGnU6In5bt-9" value="MCP Client" style="rounded=1;whiteSpace=wrap;html=1;fillColor=#dae8fc;strokeColor=#6c8ebf;" vertex="1" parent="1">
          <mxGeometry x="230" y="340" width="100" height="40" as="geometry" />
        </mxCell>
        <mxCell id="7-DRv9SmUTHGnU6In5bt-10" value="MCP Client" style="rounded=1;whiteSpace=wrap;html=1;fillColor=#dae8fc;strokeColor=#6c8ebf;" vertex="1" parent="1">
          <mxGeometry x="230" y="290" width="100" height="40" as="geometry" />
        </mxCell>
        <mxCell id="4nFs8JlrylZUHnkrLmY5-1" value="&lt;b&gt;MCP Server A&lt;/b&gt;" style="rounded=0;whiteSpace=wrap;html=1;fillColor=#eeeeee;strokeColor=#36393d;" vertex="1" parent="1">
          <mxGeometry x="450" y="160" width="120" height="60" as="geometry" />
        </mxCell>
        <mxCell id="4nFs8JlrylZUHnkrLmY5-2" value="" style="curved=1;endArrow=classic;html=1;rounded=0;exitX=1;exitY=0.5;exitDx=0;exitDy=0;" edge="1" parent="1" source="7-DRv9SmUTHGnU6In5bt-3">
          <mxGeometry width="50" height="50" relative="1" as="geometry">
            <mxPoint x="400" y="240" as="sourcePoint" />
            <mxPoint x="450" y="190" as="targetPoint" />
            <Array as="points">
              <mxPoint x="360" y="210" />
            </Array>
          </mxGeometry>
        </mxCell>
        <mxCell id="4nFs8JlrylZUHnkrLmY5-3" value="MCP Protocol" style="edgeLabel;html=1;align=center;verticalAlign=middle;resizable=0;points=[];" vertex="1" connectable="0" parent="4nFs8JlrylZUHnkrLmY5-2">
          <mxGeometry x="-0.0075" y="-14" relative="1" as="geometry">
            <mxPoint as="offset" />
          </mxGeometry>
        </mxCell>
        <mxCell id="IlSN5gRmGEGN3zsmKvGK-3" value="" style="endArrow=classic;startArrow=classic;html=1;rounded=0;exitX=1;exitY=0.5;exitDx=0;exitDy=0;" edge="1" parent="1" source="IlSN5gRmGEGN3zsmKvGK-1">
          <mxGeometry width="50" height="50" relative="1" as="geometry">
            <mxPoint x="620" y="230" as="sourcePoint" />
            <mxPoint x="660" y="190" as="targetPoint" />
          </mxGeometry>
        </mxCell>
        <mxCell id="IlSN5gRmGEGN3zsmKvGK-5" value="" style="endArrow=classic;startArrow=classic;html=1;rounded=0;exitX=1;exitY=0.5;exitDx=0;exitDy=0;entryX=0.008;entryY=0.424;entryDx=0;entryDy=0;entryPerimeter=0;" edge="1" parent="1" source="4nFs8JlrylZUHnkrLmY5-1" target="IlSN5gRmGEGN3zsmKvGK-1">
          <mxGeometry width="50" height="50" relative="1" as="geometry">
            <mxPoint x="570" y="190" as="sourcePoint" />
            <mxPoint x="660" y="187" as="targetPoint" />
          </mxGeometry>
        </mxCell>
        <mxCell id="IlSN5gRmGEGN3zsmKvGK-1" value="&lt;br&gt;&lt;b&gt;Local Data Source A&lt;/b&gt;" style="strokeWidth=2;html=1;shape=mxgraph.flowchart.database;whiteSpace=wrap;fillColor=#eeeeee;strokeColor=#36393d;" vertex="1" parent="1">
          <mxGeometry x="659" y="160" width="80" height="70" as="geometry" />
        </mxCell>
        <mxCell id="IlSN5gRmGEGN3zsmKvGK-6" value="&lt;b&gt;MCP Server B&lt;/b&gt;" style="rounded=0;whiteSpace=wrap;html=1;fillColor=#eeeeee;strokeColor=#36393d;" vertex="1" parent="1">
          <mxGeometry x="450" y="280" width="120" height="60" as="geometry" />
        </mxCell>
        <mxCell id="IlSN5gRmGEGN3zsmKvGK-8" value="" style="endArrow=classic;startArrow=classic;html=1;rounded=0;exitX=1;exitY=0.5;exitDx=0;exitDy=0;" edge="1" parent="1" source="IlSN5gRmGEGN3zsmKvGK-10">
          <mxGeometry width="50" height="50" relative="1" as="geometry">
            <mxPoint x="620" y="340" as="sourcePoint" />
            <mxPoint x="660" y="300" as="targetPoint" />
          </mxGeometry>
        </mxCell>
        <mxCell id="IlSN5gRmGEGN3zsmKvGK-9" value="" style="endArrow=classic;startArrow=classic;html=1;rounded=0;exitX=1;exitY=0.5;exitDx=0;exitDy=0;entryX=0.008;entryY=0.424;entryDx=0;entryDy=0;entryPerimeter=0;" edge="1" parent="1" source="IlSN5gRmGEGN3zsmKvGK-6" target="IlSN5gRmGEGN3zsmKvGK-10">
          <mxGeometry width="50" height="50" relative="1" as="geometry">
            <mxPoint x="570" y="300" as="sourcePoint" />
            <mxPoint x="660" y="297" as="targetPoint" />
          </mxGeometry>
        </mxCell>
        <mxCell id="IlSN5gRmGEGN3zsmKvGK-10" value="&lt;br&gt;&lt;b&gt;Local Data Source B&lt;/b&gt;" style="strokeWidth=2;html=1;shape=mxgraph.flowchart.database;whiteSpace=wrap;fillColor=#eeeeee;strokeColor=#36393d;" vertex="1" parent="1">
          <mxGeometry x="659" y="280" width="80" height="70" as="geometry" />
        </mxCell>
        <mxCell id="IlSN5gRmGEGN3zsmKvGK-11" value="&lt;b&gt;MCP Server A&lt;/b&gt;" style="rounded=0;whiteSpace=wrap;html=1;fillColor=#eeeeee;strokeColor=#36393d;" vertex="1" parent="1">
          <mxGeometry x="450" y="400" width="120" height="60" as="geometry" />
        </mxCell>
        <mxCell id="IlSN5gRmGEGN3zsmKvGK-13" value="" style="endArrow=classic;startArrow=classic;html=1;rounded=0;exitX=1;exitY=0.5;exitDx=0;exitDy=0;" edge="1" parent="1" source="IlSN5gRmGEGN3zsmKvGK-15">
          <mxGeometry width="50" height="50" relative="1" as="geometry">
            <mxPoint x="620" y="470" as="sourcePoint" />
            <mxPoint x="660" y="430" as="targetPoint" />
          </mxGeometry>
        </mxCell>
        <mxCell id="IlSN5gRmGEGN3zsmKvGK-14" value="" style="endArrow=classic;startArrow=classic;html=1;rounded=0;exitX=1;exitY=0.5;exitDx=0;exitDy=0;entryX=0.008;entryY=0.424;entryDx=0;entryDy=0;entryPerimeter=0;" edge="1" parent="1" source="IlSN5gRmGEGN3zsmKvGK-11" target="IlSN5gRmGEGN3zsmKvGK-15">
          <mxGeometry width="50" height="50" relative="1" as="geometry">
            <mxPoint x="570" y="430" as="sourcePoint" />
            <mxPoint x="660" y="427" as="targetPoint" />
          </mxGeometry>
        </mxCell>
        <mxCell id="IlSN5gRmGEGN3zsmKvGK-21" value="Web APIs" style="edgeLabel;html=1;align=center;verticalAlign=middle;resizable=0;points=[];" vertex="1" connectable="0" parent="IlSN5gRmGEGN3zsmKvGK-14">
          <mxGeometry x="-0.0592" y="-2" relative="1" as="geometry">
            <mxPoint y="-2" as="offset" />
          </mxGeometry>
        </mxCell>
        <mxCell id="IlSN5gRmGEGN3zsmKvGK-15" value="&lt;br&gt;Remote Service" style="strokeWidth=2;html=1;shape=mxgraph.flowchart.database;whiteSpace=wrap;fillColor=#eeeeee;strokeColor=#36393d;" vertex="1" parent="1">
          <mxGeometry x="659" y="400" width="80" height="70" as="geometry" />
        </mxCell>
        <mxCell id="IlSN5gRmGEGN3zsmKvGK-16" value="" style="endArrow=classic;startArrow=classic;html=1;rounded=0;exitX=1;exitY=0.5;exitDx=0;exitDy=0;entryX=0;entryY=0.5;entryDx=0;entryDy=0;" edge="1" parent="1" target="IlSN5gRmGEGN3zsmKvGK-6">
          <mxGeometry width="50" height="50" relative="1" as="geometry">
            <mxPoint x="330" y="309.58" as="sourcePoint" />
            <mxPoint x="420" y="309.58" as="targetPoint" />
          </mxGeometry>
        </mxCell>
        <mxCell id="IlSN5gRmGEGN3zsmKvGK-7" value="MCP Protocol" style="edgeLabel;html=1;align=center;verticalAlign=middle;resizable=0;points=[];" vertex="1" connectable="0" parent="1">
          <mxGeometry x="390.00005804022675" y="309.9959451468496" as="geometry" />
        </mxCell>
        <mxCell id="IlSN5gRmGEGN3zsmKvGK-19" value="" style="curved=1;endArrow=classic;html=1;rounded=0;exitX=1;exitY=0.5;exitDx=0;exitDy=0;entryX=0;entryY=0.5;entryDx=0;entryDy=0;" edge="1" parent="1" source="7-DRv9SmUTHGnU6In5bt-9" target="IlSN5gRmGEGN3zsmKvGK-11">
          <mxGeometry width="50" height="50" relative="1" as="geometry">
            <mxPoint x="340" y="410" as="sourcePoint" />
            <mxPoint x="460" y="340" as="targetPoint" />
            <Array as="points">
              <mxPoint x="340" y="420" />
            </Array>
          </mxGeometry>
        </mxCell>
        <mxCell id="IlSN5gRmGEGN3zsmKvGK-20" value="MCP Protocol" style="edgeLabel;html=1;align=center;verticalAlign=middle;resizable=0;points=[];" vertex="1" connectable="0" parent="IlSN5gRmGEGN3zsmKvGK-19">
          <mxGeometry x="-0.0075" y="-14" relative="1" as="geometry">
            <mxPoint x="17" y="-26" as="offset" />
          </mxGeometry>
        </mxCell>
        <mxCell id="aEtm1Ni_BbgxueOskpLN-1" value="" style="rounded=0;whiteSpace=wrap;html=1;fillColor=#eeeeee;strokeColor=#36393d;" vertex="1" parent="1">
          <mxGeometry x="90" y="650" width="180" height="240" as="geometry" />
        </mxCell>
        <mxCell id="aEtm1Ni_BbgxueOskpLN-2" value="&lt;b&gt;Agent B&lt;/b&gt;&lt;div&gt;&lt;b&gt;(MCP Host)&lt;/b&gt;&lt;/div&gt;" style="text;strokeColor=none;align=center;fillColor=none;html=1;verticalAlign=middle;whiteSpace=wrap;rounded=0;" vertex="1" parent="1">
          <mxGeometry x="120" y="660" width="120" height="30" as="geometry" />
        </mxCell>
        <mxCell id="aEtm1Ni_BbgxueOskpLN-3" value="MCP Client" style="rounded=1;whiteSpace=wrap;html=1;fillColor=#dae8fc;strokeColor=#6c8ebf;" vertex="1" parent="1">
          <mxGeometry x="230" y="720" width="100" height="40" as="geometry" />
        </mxCell>
        <mxCell id="aEtm1Ni_BbgxueOskpLN-4" value="MCP Client" style="rounded=1;whiteSpace=wrap;html=1;fillColor=#dae8fc;strokeColor=#6c8ebf;" vertex="1" parent="1">
          <mxGeometry x="230" y="820" width="100" height="40" as="geometry" />
        </mxCell>
        <mxCell id="aEtm1Ni_BbgxueOskpLN-6" value="&lt;b&gt;MCP Server Y&lt;/b&gt;" style="rounded=0;whiteSpace=wrap;html=1;fillColor=#eeeeee;strokeColor=#36393d;" vertex="1" parent="1">
          <mxGeometry x="450" y="640" width="120" height="60" as="geometry" />
        </mxCell>
        <mxCell id="aEtm1Ni_BbgxueOskpLN-7" value="" style="curved=1;endArrow=classic;html=1;rounded=0;exitX=1;exitY=0.5;exitDx=0;exitDy=0;" edge="1" parent="1" source="aEtm1Ni_BbgxueOskpLN-3">
          <mxGeometry width="50" height="50" relative="1" as="geometry">
            <mxPoint x="400" y="720" as="sourcePoint" />
            <mxPoint x="450" y="670" as="targetPoint" />
            <Array as="points">
              <mxPoint x="360" y="690" />
            </Array>
          </mxGeometry>
        </mxCell>
        <mxCell id="aEtm1Ni_BbgxueOskpLN-8" value="MCP Protocol" style="edgeLabel;html=1;align=center;verticalAlign=middle;resizable=0;points=[];" vertex="1" connectable="0" parent="aEtm1Ni_BbgxueOskpLN-7">
          <mxGeometry x="-0.0075" y="-14" relative="1" as="geometry">
            <mxPoint as="offset" />
          </mxGeometry>
        </mxCell>
        <mxCell id="aEtm1Ni_BbgxueOskpLN-9" value="" style="endArrow=classic;startArrow=classic;html=1;rounded=0;exitX=1;exitY=0.5;exitDx=0;exitDy=0;" edge="1" parent="1" source="aEtm1Ni_BbgxueOskpLN-11">
          <mxGeometry width="50" height="50" relative="1" as="geometry">
            <mxPoint x="620" y="710" as="sourcePoint" />
            <mxPoint x="660" y="670" as="targetPoint" />
          </mxGeometry>
        </mxCell>
        <mxCell id="aEtm1Ni_BbgxueOskpLN-10" value="" style="endArrow=classic;startArrow=classic;html=1;rounded=0;exitX=1;exitY=0.5;exitDx=0;exitDy=0;entryX=0.008;entryY=0.424;entryDx=0;entryDy=0;entryPerimeter=0;" edge="1" parent="1" source="aEtm1Ni_BbgxueOskpLN-6" target="aEtm1Ni_BbgxueOskpLN-11">
          <mxGeometry width="50" height="50" relative="1" as="geometry">
            <mxPoint x="570" y="670" as="sourcePoint" />
            <mxPoint x="660" y="667" as="targetPoint" />
          </mxGeometry>
        </mxCell>
        <mxCell id="aEtm1Ni_BbgxueOskpLN-11" value="&lt;br&gt;&lt;b&gt;Local Data Source A&lt;/b&gt;" style="strokeWidth=2;html=1;shape=mxgraph.flowchart.database;whiteSpace=wrap;fillColor=#eeeeee;strokeColor=#36393d;" vertex="1" parent="1">
          <mxGeometry x="659" y="640" width="80" height="70" as="geometry" />
        </mxCell>
        <mxCell id="aEtm1Ni_BbgxueOskpLN-16" value="&lt;b&gt;MCP Server Z&lt;/b&gt;" style="rounded=0;whiteSpace=wrap;html=1;fillColor=#eeeeee;strokeColor=#36393d;" vertex="1" parent="1">
          <mxGeometry x="450" y="880" width="120" height="60" as="geometry" />
        </mxCell>
        <mxCell id="aEtm1Ni_BbgxueOskpLN-17" value="" style="endArrow=classic;startArrow=classic;html=1;rounded=0;exitX=1;exitY=0.5;exitDx=0;exitDy=0;" edge="1" parent="1" source="aEtm1Ni_BbgxueOskpLN-20">
          <mxGeometry width="50" height="50" relative="1" as="geometry">
            <mxPoint x="620" y="950" as="sourcePoint" />
            <mxPoint x="660" y="910" as="targetPoint" />
          </mxGeometry>
        </mxCell>
        <mxCell id="aEtm1Ni_BbgxueOskpLN-18" value="" style="endArrow=classic;startArrow=classic;html=1;rounded=0;exitX=1;exitY=0.5;exitDx=0;exitDy=0;entryX=0.008;entryY=0.424;entryDx=0;entryDy=0;entryPerimeter=0;" edge="1" parent="1" source="aEtm1Ni_BbgxueOskpLN-16" target="aEtm1Ni_BbgxueOskpLN-20">
          <mxGeometry width="50" height="50" relative="1" as="geometry">
            <mxPoint x="570" y="910" as="sourcePoint" />
            <mxPoint x="660" y="907" as="targetPoint" />
          </mxGeometry>
        </mxCell>
        <mxCell id="aEtm1Ni_BbgxueOskpLN-19" value="Web APIs" style="edgeLabel;html=1;align=center;verticalAlign=middle;resizable=0;points=[];" vertex="1" connectable="0" parent="aEtm1Ni_BbgxueOskpLN-18">
          <mxGeometry x="-0.0592" y="-2" relative="1" as="geometry">
            <mxPoint y="-2" as="offset" />
          </mxGeometry>
        </mxCell>
        <mxCell id="aEtm1Ni_BbgxueOskpLN-20" value="&lt;br&gt;Remote Service" style="strokeWidth=2;html=1;shape=mxgraph.flowchart.database;whiteSpace=wrap;fillColor=#eeeeee;strokeColor=#36393d;" vertex="1" parent="1">
          <mxGeometry x="659" y="880" width="80" height="70" as="geometry" />
        </mxCell>
        <mxCell id="aEtm1Ni_BbgxueOskpLN-23" value="" style="curved=1;endArrow=classic;html=1;rounded=0;exitX=1;exitY=0.5;exitDx=0;exitDy=0;entryX=0;entryY=0.5;entryDx=0;entryDy=0;" edge="1" parent="1" source="aEtm1Ni_BbgxueOskpLN-4" target="aEtm1Ni_BbgxueOskpLN-16">
          <mxGeometry width="50" height="50" relative="1" as="geometry">
            <mxPoint x="340" y="890" as="sourcePoint" />
            <mxPoint x="460" y="820" as="targetPoint" />
            <Array as="points">
              <mxPoint x="340" y="900" />
            </Array>
          </mxGeometry>
        </mxCell>
        <mxCell id="aEtm1Ni_BbgxueOskpLN-24" value="MCP Protocol" style="edgeLabel;html=1;align=center;verticalAlign=middle;resizable=0;points=[];" vertex="1" connectable="0" parent="aEtm1Ni_BbgxueOskpLN-23">
          <mxGeometry x="-0.0075" y="-14" relative="1" as="geometry">
            <mxPoint x="17" y="-26" as="offset" />
          </mxGeometry>
        </mxCell>
        <mxCell id="aEtm1Ni_BbgxueOskpLN-25" value="" style="rounded=0;whiteSpace=wrap;html=1;fillColor=#fff2cc;strokeColor=#d6b656;" vertex="1" parent="1">
          <mxGeometry x="90" y="440" width="180" height="180" as="geometry" />
        </mxCell>
        <mxCell id="aEtm1Ni_BbgxueOskpLN-27" value="" style="curved=1;endArrow=classic;html=1;rounded=0;exitX=0.25;exitY=0;exitDx=0;exitDy=0;" edge="1" parent="1" source="aEtm1Ni_BbgxueOskpLN-1">
          <mxGeometry width="50" height="50" relative="1" as="geometry">
            <mxPoint x="40" y="480" as="sourcePoint" />
            <mxPoint x="160" y="410" as="targetPoint" />
            <Array as="points">
              <mxPoint x="60" y="510" />
            </Array>
          </mxGeometry>
        </mxCell>
        <mxCell id="aEtm1Ni_BbgxueOskpLN-33" value="" style="curved=1;endArrow=classic;html=1;rounded=0;exitX=0.75;exitY=0;exitDx=0;exitDy=0;entryX=0.667;entryY=1;entryDx=0;entryDy=0;entryPerimeter=0;" edge="1" parent="1">
          <mxGeometry width="50" height="50" relative="1" as="geometry">
            <mxPoint x="200.00000000000017" y="410" as="sourcePoint" />
            <mxPoint x="214.94" y="650" as="targetPoint" />
            <Array as="points">
              <mxPoint x="299.94" y="540" />
            </Array>
          </mxGeometry>
        </mxCell>
        <mxCell id="aEtm1Ni_BbgxueOskpLN-34" value="&lt;b&gt;&lt;font style=&quot;font-size: 24px;&quot;&gt;...&lt;/font&gt;&lt;/b&gt;" style="text;strokeColor=none;align=center;fillColor=none;html=1;verticalAlign=middle;whiteSpace=wrap;rounded=0;" vertex="1" parent="1">
          <mxGeometry x="450" y="770" width="120" height="30" as="geometry" />
        </mxCell>
        <mxCell id="aEtm1Ni_BbgxueOskpLN-35" value="&lt;b&gt;A2A&lt;/b&gt;&lt;div&gt;&lt;b&gt;Protocol&lt;/b&gt;&lt;/div&gt;" style="text;strokeColor=none;align=center;fillColor=none;html=1;verticalAlign=middle;whiteSpace=wrap;rounded=0;" vertex="1" parent="1">
          <mxGeometry x="130" y="525" width="120" height="30" as="geometry" />
        </mxCell>
      </root>
    </mxGraphModel>
  </diagram>
</mxfile>
